<?xml version="1.0" standalone="no"?>
<!DOCTYPE svg PUBLIC "-//W3C//DTD SVG 20010904//EN"
 "http://www.w3.org/TR/2001/REC-SVG-20010904/DTD/svg10.dtd">
<svg version="1.0" xmlns="http://www.w3.org/2000/svg"
 width="1024.000000pt" height="1024.000000pt" viewBox="0 0 1024.000000 1024.000000"
 preserveAspectRatio="xMidYMid meet">
<metadata>
Created by potrace 1.14, written by Peter Selinger 2001-2017
</metadata>
<g transform="translate(0.000000,1024.000000) scale(0.100000,-0.100000)"
fill="#000000" stroke="none">
<path d="M4908 9032 l-428 -2 0 -188 0 -187 -147 2 c-82 2 -165 3 -185 3 l-38
0 6 185 7 185 -461 0 -462 0 -2 -182 -3 -183 -173 -3 -173 -2 1 -168 c0 -92 1
-182 0 -199 l0 -33 -186 0 -186 0 3 -917 4 -918 -192 -3 -193 -2 0 -435 0
-435 191 -2 192 -3 2 -80 c1 -44 3 -227 4 -407 l1 -328 183 -2 182 -3 3 -277
2 -278 170 0 170 0 0 -150 0 -150 150 0 149 0 3 -142 3 -143 135 -2 c74 0 145
-2 158 -2 22 -1 22 -3 22 -141 l0 -140 146 0 146 0 -3 -1522 -2 -1523 184 0
184 0 3 1028 2 1027 290 0 289 0 3 123 3 122 128 3 127 3 0 -126 0 -126 133 3
132 3 -1 343 0 342 128 0 128 0 1 -1122 c0 -618 1 -1145 2 -1173 l2 -50 128
-3 127 -3 0 -199 0 -200 585 0 585 0 0 1513 c0 831 3 1643 7 1804 l6 292 131
3 131 3 3 158 3 157 119 0 120 0 0 275 0 275 175 0 175 0 0 1355 0 1355 -180
0 -180 0 0 195 0 196 -442 -2 -443 -1 -3 215 -2 214 -332 6 c-182 4 -418 7
-525 7 l-193 0 0 195 0 195 -125 0 -125 0 -2 188 -3 187 -125 0 c-69 0 -317
-1 -552 -3z m-798 -799 l0 -408 -145 3 -145 3 0 -190 0 -191 -42 0 c-24 0
-240 -2 -480 -5 l-438 -5 0 185 0 185 170 0 170 0 0 415 0 415 455 0 455 0 0
-407z m1480 2 l0 -405 -265 0 -265 0 0 -190 0 -189 -152 -3 -153 -3 -3 -177
-2 -178 -135 0 -135 0 0 75 0 75 -179 0 -179 0 -7 193 c-3 105 -5 235 -3 287
l3 95 183 3 182 2 0 225 0 225 140 0 140 0 0 185 0 185 415 0 415 0 0 -405z
m1027 -425 l273 0 0 -180 0 -180 -262 -2 -263 -3 -3 -172 -2 -172 -133 -3
-132 -3 -3 -187 -2 -188 -125 0 -125 0 0 -145 0 -144 -122 -3 -123 -3 0 -117
0 -118 -132 0 -133 0 0 265 0 265 -130 0 -130 0 0 185 0 185 130 0 130 0 2
173 3 172 128 3 127 3 0 191 0 191 377 -6 c207 -4 499 -7 650 -7z m1163 -727
l0 -358 -255 3 -255 2 0 -155 0 -155 -190 0 -190 0 0 -255 0 -255 -125 0 -125
0 0 -170 0 -170 -135 0 -135 0 0 165 0 165 -130 0 -130 0 0 260 0 260 135 0
135 0 0 145 0 145 125 0 125 0 0 195 0 194 133 3 132 3 3 168 2 167 440 0 440
0 0 -357z m-3300 -523 l0 -140 295 0 295 0 0 -115 0 -115 -295 0 -295 0 0
-140 0 -140 -180 0 -180 0 0 140 0 140 -155 0 -155 0 0 -140 0 -139 -157 -3
-158 -3 -3 -172 -2 -173 -145 0 -145 0 0 -310 0 -310 -165 0 -165 0 -2 313 -3
312 -192 3 -193 2 0 420 0 420 188 2 187 3 3 143 3 142 809 0 810 0 0 -140z
m3300 -845 l0 -465 -120 0 -121 0 3 -67 c1 -38 2 -152 0 -255 l-2 -188 -135 0
-135 0 0 -275 0 -275 -317 -2 -318 -3 -3 -282 -2 -283 -400 0 -400 0 0 125 0
125 -675 0 -675 0 0 160 0 160 -179 0 -178 0 -7 53 c-3 28 -6 152 -6 275 l0
222 -300 0 -300 0 0 260 0 260 155 0 155 0 0 140 0 140 146 0 147 0 -5 -217
c-3 -120 -3 -224 -1 -230 4 -10 74 -11 324 -6 l319 6 2 -184 3 -184 283 0 282
0 0 -137 0 -138 135 0 134 0 3 -137 3 -138 258 -3 257 -2 0 140 0 140 130 0
130 0 0 229 0 229 33 6 c17 3 97 5 177 5 80 -1 184 -1 233 0 l87 1 0 165 0
165 320 0 320 0 0 155 0 155 -135 0 -135 0 0 48 c0 27 3 103 7 170 l6 121 126
3 126 3 3 138 3 137 119 0 120 0 0 -465z"/>
<path d="M10080 80 l0 -80 80 0 80 0 0 80 0 80 -80 0 -80 0 0 -80z"/>
</g>
</svg>
